<svg width="32" height="32" viewBox="0 0 32 32" fill="none" xmlns="http://www.w3.org/2000/svg">
<g id="calander6">
<path id="Vector" fill-rule="evenodd" clip-rule="evenodd" d="M10.7819 2.66699C11.3342 2.66699 11.7819 3.11471 11.7819 3.66699V5.60607C12.1929 5.6035 12.6329 5.6035 13.1046 5.6035H17.856C18.3278 5.6035 18.7678 5.6035 19.1787 5.60607V3.66699C19.1787 3.11471 19.6264 2.66699 20.1787 2.66699C20.731 2.66699 21.1787 3.11471 21.1787 3.66699V5.66333C21.2526 5.66829 21.3251 5.67366 21.3964 5.67949C22.3476 5.75721 23.1524 5.91934 23.8874 6.29379C25.079 6.90099 26.0479 7.86987 26.6551 9.06156C27.0295 9.79646 27.1917 10.6013 27.2694 11.5525C27.3454 12.4826 27.3454 13.6366 27.3454 15.0929V19.8037C27.3454 20.0017 27.3454 20.1937 27.3453 20.3797C27.9977 21.3029 28.3808 22.4298 28.3808 23.6462C28.3808 26.7758 25.8438 29.3129 22.7142 29.3129C22.3739 29.3129 22.0406 29.2829 21.7169 29.2254C21.5891 29.2393 21.4359 29.2549 21.319 29.2638C20.4032 29.3337 19.2718 29.3337 17.8524 29.3337H13.1045C11.6484 29.3337 10.4944 29.3337 9.56421 29.2577C8.61304 29.1799 7.80819 29.0178 7.0733 28.6434C5.88161 28.0362 4.91273 27.0673 4.30553 25.8757C3.93107 25.1407 3.76893 24.3359 3.69122 23.3847C3.61522 22.4545 3.61522 21.3005 3.61523 19.8443V15.0929C3.61523 13.6366 3.61522 12.4826 3.69122 11.5525C3.76894 10.6013 3.93107 9.79646 4.30553 9.06156C4.91273 7.86987 5.88161 6.90099 7.0733 6.29379C7.80819 5.91934 8.61304 5.75721 9.56422 5.67949C9.63545 5.67366 9.708 5.66829 9.7819 5.66333V3.66699C9.7819 3.11471 10.2296 2.66699 10.7819 2.66699ZM18.4111 27.3334C17.5611 26.3423 17.0475 25.0542 17.0475 23.6462C17.0475 20.5166 19.5846 17.9795 22.7142 17.9795C23.6639 17.9795 24.5591 18.2131 25.3454 18.6261V15.1369C25.3454 14.4019 25.3452 13.7707 25.3371 13.2196H5.62351C5.61542 13.7707 5.61524 14.4019 5.61524 15.1369V19.8003C5.61524 21.3103 5.61601 22.3826 5.68458 23.2218C5.75218 24.0493 5.88069 24.5617 6.08754 24.9677C6.503 25.783 7.1659 26.4459 7.98128 26.8614C8.38724 27.0682 8.89957 27.1967 9.72708 27.2643C10.5663 27.3329 11.6386 27.3337 13.1486 27.3337H17.812C18.0199 27.3337 18.2194 27.3337 18.4111 27.3334ZM5.7373 11.2196H25.2234C25.1491 10.6708 25.0351 10.2875 24.8731 9.96954C24.4576 9.15418 23.7947 8.49126 22.9794 8.07581C22.5734 7.86895 22.0611 7.74046 21.2335 7.67284C20.3943 7.60428 19.322 7.6035 17.812 7.6035H13.1486C11.6386 7.6035 10.5663 7.60428 9.72708 7.67284C8.89958 7.74045 8.38725 7.86895 7.98128 8.07581C7.16592 8.49126 6.503 9.15418 6.08754 9.96954C5.92553 10.2875 5.81157 10.6708 5.7373 11.2196ZM11.2899 17.8723C11.4214 17.8723 11.528 17.7658 11.528 17.6343C11.528 17.5027 11.4214 17.3962 11.2899 17.3962C11.1584 17.3962 11.0518 17.5027 11.0518 17.6343C11.0518 17.7658 11.1584 17.8723 11.2899 17.8723ZM9.528 17.6343C9.528 16.6611 10.3168 15.8723 11.2899 15.8723C12.263 15.8723 13.0518 16.6611 13.0518 17.6343C13.0518 18.6074 12.263 19.3962 11.2899 19.3962C10.3168 19.3962 9.528 18.6074 9.528 17.6343ZM15.4807 17.8723C15.6122 17.8723 15.7187 17.7658 15.7187 17.6343C15.7187 17.5027 15.6122 17.3962 15.4807 17.3962C15.3491 17.3962 15.2426 17.5027 15.2426 17.6343C15.2426 17.7658 15.3491 17.8723 15.4807 17.8723ZM13.7187 17.6343C13.7187 16.6611 14.5076 15.8723 15.4807 15.8723C16.4538 15.8723 17.2426 16.6611 17.2426 17.6343C17.2426 18.6074 16.4538 19.3962 15.4807 19.3962C14.5076 19.3962 13.7187 18.6074 13.7187 17.6343ZM22.7142 19.9795C20.6891 19.9795 19.0475 21.6211 19.0475 23.6462C19.0475 25.6713 20.6891 27.3129 22.7142 27.3129C24.7392 27.3129 26.3808 25.6713 26.3808 23.6462C26.3808 21.6211 24.7392 19.9795 22.7142 19.9795ZM11.2899 22.0629C11.4214 22.0629 11.528 21.9562 11.528 21.8247C11.528 21.6933 11.4214 21.5867 11.2899 21.5867C11.1584 21.5867 11.0518 21.6933 11.0518 21.8247C11.0518 21.9562 11.1584 22.0629 11.2899 22.0629ZM9.528 21.8247C9.528 20.8517 10.3168 20.0629 11.2899 20.0629C12.263 20.0629 13.0518 20.8517 13.0518 21.8247C13.0518 22.7978 12.263 23.5867 11.2899 23.5867C10.3168 23.5867 9.528 22.7978 9.528 21.8247ZM22.7142 20.8962C23.2664 20.8962 23.7142 21.3439 23.7142 21.8962V22.6462H24.4642C25.0164 22.6462 25.4642 23.0939 25.4642 23.6462C25.4642 24.1985 25.0164 24.6462 24.4642 24.6462H23.7142V25.3962C23.7142 25.9485 23.2664 26.3962 22.7142 26.3962C22.1619 26.3962 21.7142 25.9485 21.7142 25.3962V24.6462H20.9642C20.4119 24.6462 19.9642 24.1985 19.9642 23.6462C19.9642 23.0939 20.4119 22.6462 20.9642 22.6462H21.7142V21.8962C21.7142 21.3439 22.1619 20.8962 22.7142 20.8962Z" fill="#122A72"/>
</g>
</svg>
