<svg width="24" height="25" viewBox="0 0 24 25" fill="none" xmlns="http://www.w3.org/2000/svg">
<g id="Vector">
<path d="M11.5 15L18.5 10.5L11.5 6V15ZM8 18.5C7.45 18.5 6.97917 18.3042 6.5875 17.9125C6.19583 17.5208 6 17.05 6 16.5V4.5C6 3.95 6.19583 3.47917 6.5875 3.0875C6.97917 2.69583 7.45 2.5 8 2.5H20C20.55 2.5 21.0208 2.69583 21.4125 3.0875C21.8042 3.47917 22 3.95 22 4.5V16.5C22 17.05 21.8042 17.5208 21.4125 17.9125C21.0208 18.3042 20.55 18.5 20 18.5H8ZM8 16.5H20V4.5H8V16.5ZM4 22.5C3.45 22.5 2.97917 22.3042 2.5875 21.9125C2.19583 21.5208 2 21.05 2 20.5V6.5H4V20.5H18V22.5H4Z" fill="#122A72"/>
</g>
</svg>
