<svg width="33" height="23" viewBox="0 0 33 23" fill="none" xmlns="http://www.w3.org/2000/svg">
<g clip-path="url(#clip0_8019_11043)">
<path d="M32.3149 3.59172C31.9362 2.17721 30.8246 1.06562 29.4101 0.686971C26.8462 0 16.5714 0 16.5714 0C16.5714 0 6.29654 0 3.73528 0.686971C2.32077 1.06562 1.20917 2.17721 0.830526 3.59172C0.143555 6.15299 0.143555 11.5 0.143555 11.5C0.143555 11.5 0.143555 16.847 0.830526 19.4083C1.20917 20.8228 2.32077 21.9344 3.73528 22.313C6.29654 23 16.5714 23 16.5714 23C16.5714 23 26.8462 23 29.4074 22.313C30.8219 21.9344 31.9335 20.8228 32.3122 19.4083C32.9992 16.847 32.9992 11.5 32.9992 11.5C32.9992 11.5 32.9992 6.15299 32.3122 3.59172H32.3149Z" fill="white"/>
<path d="M13.2852 16.4279V6.57227L21.8236 11.5001L13.2852 16.4279Z" fill="#040273"/>
</g>
<defs>
<clipPath id="clip0_8019_11043">
<rect width="32.8556" height="23" fill="white" transform="translate(0.143555)"/>
</clipPath>
</defs>
</svg>
